<?xml version="1.0" standalone="no"?><!DOCTYPE svg PUBLIC "-//W3C//DTD SVG 1.1//EN" "http://www.w3.org/Graphics/SVG/1.1/DTD/svg11.dtd"><svg t="1512544198946" class="icon" style="" viewBox="0 0 1024 1024" version="1.1" xmlns="http://www.w3.org/2000/svg" p-id="1667" xmlns:xlink="http://www.w3.org/1999/xlink" width="200" height="200"><defs><style type="text/css"></style></defs><path d="M925.354667 690.730667l-1.024-2.432c-1.792-3.712-182.698667-377.856-245.845334-500.736-67.285333-131.114667-140.501333-140.458667-166.4-139.178667-25.856-1.28-99.114667 7.936-166.570666 139.178667-63.104 122.88-243.968 497.066667-245.802667 500.778666l-1.024 2.432c-1.834667 4.778667-45.354667 119.338667 28.757333 212.053334 55.637333 69.504 120.490667 72.874667 152.405334 72.874666l5.162666-0.042666h3.754667c33.962667 0 119.424-13.141333 223.189333-125.909334 103.808 112.810667 189.312 125.909333 223.189334 125.909334h3.754666l5.205334 0.042666c31.872 0 96.810667-3.370667 152.362666-72.874666 74.24-92.714667 30.72-207.274667 28.885334-212.096z m-420.266667-242.986667l0.042667 0.298667c2.346667-0.128 4.608-0.128 6.869333-0.170667 2.304 0.042667 4.522667 0.042667 6.869333 0.170667v-0.298667c27.349333 0.384 48.384 7.253333 62.72 20.693333 23.381333 22.016 25.898667 58.410667 25.898667 73.088 0 52.096-32.213333 120.917333-95.488 204.629334-63.317333-83.712-95.488-152.533333-95.488-204.629334 0-14.677333 2.56-51.072 25.941333-73.088 14.293333-13.44 35.370667-20.309333 62.634667-20.693333z m339.968 413.866667c-38.784 48.554667-80.682667 48.298667-105.642667 48.128l-4.224-0.042667c-14.293333 0-86.144-5.76-180.437333-111.018667 79.744-102.357333 118.698667-186.666667 118.698667-257.152 0-28.842667-6.058667-82.858667-46.762667-121.173333-28.245333-26.496-66.816-39.338667-114.688-38.4-47.872-0.896-86.442667 11.904-114.730667 38.4-40.661333 38.272-46.72 92.330667-46.72 121.173333 0 70.485333 38.869333 154.794667 118.656 257.152-94.293333 105.258667-166.186667 111.018667-180.437333 111.018667l-4.181333 0.042667c-25.002667 0.128-66.816 0.426667-105.642667-48.128-47.274667-59.093333-22.314667-136.96-19.157333-146.005334 12.544-25.856 183.68-379.605333 244.437333-497.92 54.997333-107.050667 104.234667-103.424 104.661333-103.424l-0.384-0.085333c3.669333 0 7.125333 0.042667 6.570667 0.085333 0.469333 0 49.749333-3.626667 104.704 103.424 60.8 118.357333 232.192 472.704 244.437333 498.005334 3.370667 9.386667 28.544 86.272-19.157333 145.92z" p-id="1668"></path></svg>